<svg xmlns="http://www.w3.org/2000/svg" viewBox="0 0 32 32">
  <!-- Main heart shape -->
  <path d="M16 28C16 28 3 17 3 9C3 5 6 3 9 3C12 3 16 6 16 6C16 6 20 3 23 3C26 3 29 5 29 9C29 17 16 28 16 28Z" 
    fill="#FF69B4" 
    stroke="#FF1493" 
    stroke-width="1.5"
  />
  
  <!-- Small white highlight for depth -->
  <path d="M12 8C11 9 10 11 10 11C10 11 9 9 7 8C5 7 7 5 8 6C9 7 12 8 12 8Z" 
    fill="white" 
    fill-opacity="0.5"
  />
  
  <!-- Cursor point -->
  <circle cx="16" cy="6" r="1" fill="#FF1493"/>
</svg>